<svg xmlns="http://www.w3.org/2000/svg" viewBox="0 0 64 64" role="img" aria-label="G20テーマ">
  <!-- Soft background circle -->
  <circle cx="32" cy="32" r="30" fill="#EEFAF2"/>
  <circle cx="32" cy="32" r="30" fill="none" stroke="#5DB88A" stroke-width="1.5" opacity="0.5"/>

  <!-- Globe: latitude arcs -->
  <ellipse cx="32" cy="32" rx="20" ry="7"  fill="none" stroke="#5DB88A" stroke-width="1.2" opacity="0.4"/>
  <ellipse cx="32" cy="32" rx="20" ry="14" fill="none" stroke="#5DB88A" stroke-width="1.2" opacity="0.3"/>
  <circle  cx="32" cy="32" r="20"           fill="none" stroke="#5DB88A" stroke-width="1.2" opacity="0.3"/>
  <!-- Longitude line -->
  <line x1="32" y1="12" x2="32" y2="52" stroke="#5DB88A" stroke-width="1.2" opacity="0.4"/>
  <line x1="12" y1="32" x2="52" y2="32" stroke="#5DB88A" stroke-width="1.2" opacity="0.4"/>

  <!-- 20 dots: inner ring 8 @ r=10, outer ring 12 @ r=21 -->
  <!-- Inner (r=10): angles at i·45°, starting -90° -->
  <circle cx="32.0" cy="22.0" r="2.5" fill="#3DAA70"/>
  <circle cx="39.1" cy="24.9" r="2.5" fill="#3DAA70"/>
  <circle cx="42.0" cy="32.0" r="2.5" fill="#3DAA70"/>
  <circle cx="39.1" cy="39.1" r="2.5" fill="#3DAA70"/>
  <circle cx="32.0" cy="42.0" r="2.5" fill="#3DAA70"/>
  <circle cx="24.9" cy="39.1" r="2.5" fill="#3DAA70"/>
  <circle cx="22.0" cy="32.0" r="2.5" fill="#3DAA70"/>
  <circle cx="24.9" cy="24.9" r="2.5" fill="#3DAA70"/>
  <!-- Outer (r=21): angles at i·30°, starting -90° -->
  <circle cx="32.0" cy="11.0" r="2.5" fill="#6BCB99"/>
  <circle cx="42.5" cy="14.2" r="2.5" fill="#6BCB99"/>
  <circle cx="50.2" cy="21.7" r="2.5" fill="#6BCB99"/>
  <circle cx="53.0" cy="32.0" r="2.5" fill="#6BCB99"/>
  <circle cx="50.2" cy="42.3" r="2.5" fill="#6BCB99"/>
  <circle cx="42.5" cy="49.8" r="2.5" fill="#6BCB99"/>
  <circle cx="32.0" cy="53.0" r="2.5" fill="#6BCB99"/>
  <circle cx="21.5" cy="49.8" r="2.5" fill="#6BCB99"/>
  <circle cx="13.8" cy="42.3" r="2.5" fill="#6BCB99"/>
  <circle cx="11.0" cy="32.0" r="2.5" fill="#6BCB99"/>
  <circle cx="13.8" cy="21.7" r="2.5" fill="#6BCB99"/>
  <circle cx="21.5" cy="14.2" r="2.5" fill="#6BCB99"/>
</svg>
